inDegrees=no
num_controls=7
num_derivatives=13
num_iterations=83
num_multipliers=7
num_parameters=0
num_slacks=7
num_states=26
objective=0.333862
objective_accelerations=0.037447
objective_balance=0.001341
objective_effort=0.027388
objective_height=0.266212
objective_ligament=0.001473
solver_duration=873.766273
status=Solve_Succeeded
success=true
DataType=double
version=3
OpenSimVersion=4.5
endheader
time	/jointset/ground_pelvis/pelvis_tilt/value	/jointset/ground_pelvis/pelvis_tx/value	/jointset/ground_pelvis/pelvis_ty/value	/jointset/hip_r/hip_flexion_r/value	/jointset/hip_r/hip_adduction_r/value	/jointset/hip_r/hip_rotation_r/value	/jointset/back/lumbar_extension/value	/jointset/patellofemoral_r/patellar_flexion_r/value	/jointset/knee_r/knee_flexion_r/value	/jointset/knee_r/knee_adduction_r/value	/jointset/knee_r/knee_rotation_r/value	/jointset/ankle_r/ankle_angle_r/value	/jointset/subtalar_r/subtalar_angle_r/value	/jointset/ground_pelvis/pelvis_tilt/speed	/jointset/ground_pelvis/pelvis_tx/speed	/jointset/ground_pelvis/pelvis_ty/speed	/jointset/hip_r/hip_flexion_r/speed	/jointset/hip_r/hip_adduction_r/speed	/jointset/hip_r/hip_rotation_r/speed	/jointset/back/lumbar_extension/speed	/jointset/patellofemoral_r/patellar_flexion_r/speed	/jointset/knee_r/knee_flexion_r/speed	/jointset/knee_r/knee_adduction_r/speed	/jointset/knee_r/knee_rotation_r/speed	/jointset/ankle_r/ankle_angle_r/speed	/jointset/subtalar_r/subtalar_angle_r/speed	/forceset/tau_hip_flexion_r	/forceset/tau_hip_adduction_r	/forceset/tau_hip_rotation_r	/forceset/tau_knee_flexion_r	/forceset/tau_ankle_angle_r	/forceset/tau_subtalar_angle_r	/forceset/tau_lumbar_extension	lambda_cid13_p0	lambda_cid14_p0	lambda_cid14_p1	lambda_cid14_p2	lambda_cid14_p3	lambda_cid14_p4	lambda_cid14_p5	/jointset/ground_pelvis/pelvis_tilt/accel	/jointset/ground_pelvis/pelvis_tx/accel	/jointset/ground_pelvis/pelvis_ty/accel	/jointset/hip_r/hip_flexion_r/accel	/jointset/hip_r/hip_adduction_r/accel	/jointset/hip_r/hip_rotation_r/accel	/jointset/back/lumbar_extension/accel	/jointset/patellofemoral_r/patellar_flexion_r/accel	/jointset/knee_r/knee_flexion_r/accel	/jointset/knee_r/knee_adduction_r/accel	/jointset/knee_r/knee_rotation_r/accel	/jointset/ankle_r/ankle_angle_r/accel	/jointset/subtalar_r/subtalar_angle_r/accel	gamma_cid13_p0	gamma_cid14_p0	gamma_cid14_p1	gamma_cid14_p2	gamma_cid14_p3	gamma_cid14_p4	gamma_cid14_p5
1.5	-0.112406862597411	0.03756610369301785	0.8147928499855758	0.8366485074553874	-0.2267881852105368	-0.1209046470414226	-0.6255326843719966	0.9414884439576595	0.9414884439576594	-0.03604096805495242	0.1745094222789725	0.3074019245311705	0.1376951896110911	0.5255659105639009	0.2268261752636803	0.5167916081350934	-2.09039843973263	-0.0001491418844143981	-0.1759649118833291	0.8022120846437137	-1.969695011650626	-1.969695011650626	0.4954569906507056	-0.0002047515827292516	-0.523831651275903	-0.2088270661468232	-0.1737023917185575	0.01718701012486027	0.01767335568403186	-0.2842775077116546	-0.008109975331577486	-0.005531307314117242	0.2198613987840139	-9.063578815308567	-44.70668471002703	-9.433418324756081	1.015918158028093	-1.374114220869925	-627.6956778853889	54.15019195872367	0.1624548306543095	0.557848267716353	-0.5407421609171573	-0.9986722627394913	-0.2671448043342385	-0.6806534180027545	1.785816890538356	-1.342135801041084	-1.342135801041084	0.4547991157528186	-0.02075674199637234	-0.682021493191096	-0.4602250706420943	1.731050592724209e-07	1.453095813930065e-07	-1.021300016940165e-06	1.545407478078636e-06	1.33268808858352e-08	3.344424015745405e-07	-7.882767853584417e-07
1.51	-0.1071434622371148	0.03986202598606284	0.8199327096319763	0.8156965765230364	-0.2268039832453159	-0.1226978967034859	-0.6174227509267226	0.9217268442262716	0.9217268442262736	-0.03106184834521149	0.174507436964747	0.3021300210424815	0.1355828250799882	0.5270338933289179	0.2323307404655867	0.5110721338359636	-2.099716985562091	-0.003017075444527894	-0.1827083014132194	0.8196709083438544	-1.982361752263234	-1.982361752263234	0.5003216365885708	-0.0001888698028503906	-0.5304656708389818	-0.2136022442974987	-0.16612925631113	0.01537873800881512	0.01783186684024473	-0.2807099313410245	-0.006118752176109072	-0.006287765160843289	0.2130294745687477	-10.09971597687659	-43.78802096162075	-9.44533849228795	0.8399054743202571	-1.475961472035286	-622.7851321466399	54.06505302147168	0.1269411705673235	0.5426305435129241	-0.6037122227516788	-0.8578145741700774	-0.2974515668727187	-0.6744049798744273	1.710360699698628	-1.189497992274968	-1.189497992274942	0.4953863133557954	0.01353924762075684	-0.6415515417280404	-0.4795918962132376	1.649687352744479e-07	1.406123812482612e-07	-9.524068924315659e-07	1.511068037094952e-06	8.917140496049288e-09	3.313059022243023e-07	-7.698977123069858e-07
1.52	-0.1018677878149392	0.04221216791054396	0.8250121421037174	0.7946595863661668	-0.2268486274027014	-0.1245592249127262	-0.6091413401264578	0.9018464661285788	0.9018464661285788	-0.02603546437997847	0.174505766190241	0.2967942854873893	0.1334240232255918	0.5280207229396092	0.2376701015509067	0.5047061732032015	-2.107410284636378	-0.005918366405553454	-0.1895806213187997	0.8365075556418616	-1.993450684912014	-1.993450684912014	0.5049098417485337	-0.0001418436373414375	-0.5365980645565319	-0.2181145308054926	-0.1585561209037044	0.01357046589276921	0.01799037799643069	-0.2771423549703969	-0.004127529020640721	-0.00704422300757001	0.2061975503534801	-11.13921814829067	-42.86961880968867	-9.455336472529284	0.6613381455316644	-1.590091687011631	-617.8765685770888	54.04349398143032	0.06622419978921065	0.524807444399062	-0.6700394276436442	-0.6736229117046848	-0.2738162845166713	-0.7064394931408143	1.661381610111713	-1.026574208275425	-1.026574208275425	0.3995109601724104	-0.01452786487027993	-0.5816963240853869	-0.4076467421057989	1.628445983787059e-07	1.323215513453164e-07	-1.018644558947412e-06	1.403651726576361e-06	2.166815469925273e-08	3.255782806675041e-07	-8.212601908519299e-07
1.53	-0.09658466276110068	0.04461480662654006	0.8300247397282952	0.7735538616410477	-0.2269223625405586	-0.1264903492978185	-0.6006948010885945	0.8818631482038255	0.8818631482038266	-0.02096500881026439	0.1745049105600062	0.2913997909534671	0.1312215703847353	0.5285230159068144	0.2428225039945045	0.4977109466502296	-2.113453588661067	-0.008833025127170565	-0.1966333391297335	0.8526821009207572	-2.002933013758031	-2.002933013758031	0.5091588632622877	-4.237551644510103e-05	-0.5422126751164141	-0.2223312147548686	-0.1510000882955012	0.01158030912619595	0.01817385801599278	-0.2736854508907842	-0.002203077892846832	-0.00785000791196095	0.1993579943896651	-12.17874460874281	-41.99363933459292	-9.496992288210841	0.4910247805987038	-1.632818210270048	-613.189415773557	54.02242724447731	0.03005010365069598	0.5051998442224958	-0.7295625169655404	-0.5275100128411387	-0.3008761597051878	-0.7027983471479157	1.577768335309374	-0.8671131588832925	-0.8671131588832748	0.434065216367323	0.02040027519012433	-0.5380689533313611	-0.4220342633320051	1.671084102790843e-07	1.202124898242845e-07	-1.228458690926731e-06	1.21859124217693e-06	5.265247065750717e-08	3.170975917662361e-07	-9.467230679680484e-07
1.54	-0.09129895112589623	0.04706791800694864	0.834964325437775	0.752396138702684	-0.2270253613643765	-0.1284916229454364	-0.5920900611282361	0.8617933968033897	0.8617933968033896	-0.01585276953153364	0.1745046928358956	0.2859518052076679	0.1289782796959892	0.5285380392125975	0.247764634433406	0.4901037901835961	-2.117809927285363	-0.01177110359762373	-0.2036104738237967	0.8681477401408858	-2.010737380048785	-2.010737380048784	0.5132665835516603	-1.426241072787086e-05	-0.5472963069319657	-0.226282100383385	-0.1434440556873007	0.009590152359617543	0.01835733803553922	-0.2702285468111725	-0.0002786267650541216	-0.008655792816359855	0.1925184384258482	-13.21487686166697	-41.11854598651305	-9.537768430516589	0.3193887228904289	-1.68322550464789	-608.5117973335954	54.05747102718398	-0.03122973249518232	0.4827530434598055	-0.7924254103759576	-0.3362298316261562	-0.2785002342838986	-0.6913228697667259	1.519600398358307	-0.6909816972226221	-0.6909816972226226	0.3712507152961974	-0.02879886790604661	-0.4755005752193062	-0.3544870779338973	1.719275808933179e-07	1.092344511313208e-07	-1.438885878083551e-06	1.031447957112007e-06	8.311382181538626e-08	3.083488039942924e-07	-1.06154998754789e-06
